<svg width="112" height="167" viewBox="0 0 112 167" fill="none" xmlns="http://www.w3.org/2000/svg">
<path d="M22.3333 0.333325H33.4444V11.4444H22.3333V0.333325ZM33.4444 0.333325H44.5556V11.4444H33.4444V0.333325ZM44.5556 0.333325H55.6667V11.4444H44.5556V0.333325ZM55.6667 0.333325H66.7778V11.4444H55.6667V0.333325ZM66.7778 0.333325H77.8889V11.4444H66.7778V0.333325ZM77.8889 0.333325H89V11.4444H77.8889V0.333325ZM77.8889 11.4444H89V22.5556H77.8889V11.4444ZM89 11.4444H100.111V22.5556H89V11.4444ZM66.7778 11.4444H77.8889V22.5556H66.7778V11.4444ZM55.6667 11.4444H66.7778V22.5556H55.6667V11.4444ZM44.5556 11.4444H55.6667V22.5556H44.5556V11.4444ZM33.4444 11.4444H44.5556V22.5556H33.4444V11.4444ZM22.3333 11.4444H33.4444V22.5556H22.3333V11.4444ZM11.2222 22.5556H22.3333V33.6667H11.2222V22.5556ZM11.2222 11.4444H22.3333V22.5556H11.2222V11.4444ZM0.111111 22.5556H11.2222V33.6667H0.111111V22.5556ZM22.3333 22.5556H33.4444V33.6667H22.3333V22.5556ZM33.4444 22.5556H44.5556V33.6667H33.4444V22.5556ZM44.5556 22.5556H55.6667V33.6667H44.5556V22.5556ZM55.6667 22.5556H66.7778V33.6667H55.6667V22.5556ZM66.7778 22.5556H77.8889V33.6667H66.7778V22.5556ZM77.8889 22.5556H89V33.6667H77.8889V22.5556ZM89 22.5556H100.111V33.6667H89V22.5556ZM100.111 22.5556H111.222V33.6667H100.111V22.5556ZM100.111 33.6667H111.222V44.7778H100.111V33.6667ZM89 33.6667H100.111V44.7778H89V33.6667ZM77.8889 33.6667H89V44.7778H77.8889V33.6667ZM100.111 111.444H111.222V122.556H100.111V111.444ZM100.111 122.556H111.222V133.667H100.111V122.556ZM100.111 133.667H111.222V144.778H100.111V133.667ZM89 133.667H100.111V144.778H89V133.667ZM89 122.556H100.111V133.667H89V122.556ZM89 111.444H100.111V122.556H89V111.444ZM77.8889 111.444H89V122.556H77.8889V111.444ZM77.8889 122.556H89V133.667H77.8889V122.556ZM66.7778 122.556H77.8889V133.667H66.7778V122.556ZM77.8889 133.667H89V144.778H77.8889V133.667ZM89 144.778H100.111V155.889H89V144.778ZM77.8889 144.778H89V155.889H77.8889V144.778ZM66.7778 133.667H77.8889V144.778H66.7778V133.667ZM66.7778 144.778H77.8889V155.889H66.7778V144.778ZM77.8889 155.889H89V167H77.8889V155.889ZM66.7778 155.889H77.8889V167H66.7778V155.889ZM55.6667 155.889H66.7778V167H55.6667V155.889ZM44.5556 155.889H55.6667V167H44.5556V155.889ZM33.4444 155.889H44.5556V167H33.4444V155.889ZM22.3333 155.889H33.4444V167H22.3333V155.889ZM22.3333 144.778H33.4444V155.889H22.3333V144.778ZM33.4444 144.778H44.5556V155.889H33.4444V144.778ZM33.4444 133.667H44.5556V144.778H33.4444V133.667ZM44.5556 133.667H55.6667V144.778H44.5556V133.667ZM55.6667 133.667H66.7778V144.778H55.6667V133.667ZM55.6667 144.778H66.7778V155.889H55.6667V144.778ZM44.5556 144.778H55.6667V155.889H44.5556V144.778ZM11.2222 144.778H22.3333V155.889H11.2222V144.778ZM22.3333 133.667H33.4444V144.778H22.3333V133.667ZM33.4444 122.556H44.5556V133.667H33.4444V122.556ZM22.3333 122.556H33.4444V133.667H22.3333V122.556ZM11.2222 122.556H22.3333V133.667H11.2222V122.556ZM11.2222 133.667H22.3333V144.778H11.2222V133.667ZM0.111111 133.667H11.2222V144.778H0.111111V133.667ZM0.111111 122.556H11.2222V133.667H0.111111V122.556ZM0.111111 111.444H11.2222V122.556H0.111111V111.444ZM0.111111 100.333H11.2222V111.444H0.111111V100.333ZM0.111111 89.2222H11.2222V100.333H0.111111V89.2222ZM0.111111 78.1111H11.2222V89.2222H0.111111V78.1111ZM0.111111 67H11.2222V78.1111H0.111111V67ZM0.111111 55.8889H11.2222V67H0.111111V55.8889ZM0.111111 44.7778H11.2222V55.8889H0.111111V44.7778ZM0.111111 33.6667H11.2222V44.7778H0.111111V33.6667ZM11.2222 33.6667H22.3333V44.7778H11.2222V33.6667ZM22.3333 33.6667H33.4444V44.7778H22.3333V33.6667ZM33.4444 33.6667H44.5556V44.7778H33.4444V33.6667ZM22.3333 44.7778H33.4444V55.8889H22.3333V44.7778ZM22.3333 55.8889H33.4444V67H22.3333V55.8889ZM22.3333 67H33.4444V78.1111H22.3333V67ZM22.3333 78.1111H33.4444V89.2222H22.3333V78.1111ZM22.3333 89.2222H33.4444V100.333H22.3333V89.2222ZM22.3333 100.333H33.4444V111.444H22.3333V100.333ZM22.3333 111.444H33.4444V122.556H22.3333V111.444ZM11.2222 111.444H22.3333V122.556H11.2222V111.444ZM11.2222 100.333H22.3333V111.444H11.2222V100.333ZM11.2222 89.2222H22.3333V100.333H11.2222V89.2222ZM11.2222 78.1111H22.3333V89.2222H11.2222V78.1111ZM11.2222 67H22.3333V78.1111H11.2222V67ZM11.2222 55.8889H22.3333V67H11.2222V55.8889ZM11.2222 44.7778H22.3333V55.8889H11.2222V44.7778ZM55.6667 67H66.7778V78.1111H55.6667V67ZM66.7778 67H77.8889V78.1111H66.7778V67ZM77.8889 67H89V78.1111H77.8889V67ZM89 67H100.111V78.1111H89V67ZM100.111 67H111.222V78.1111H100.111V67ZM100.111 78.1111H111.222V89.2222H100.111V78.1111ZM100.111 89.2222H111.222V100.333H100.111V89.2222ZM100.111 100.333H111.222V111.444H100.111V100.333ZM89 100.333H100.111V111.444H89V100.333ZM77.8889 100.333H89V111.444H77.8889V100.333ZM77.8889 89.2222H89V100.333H77.8889V89.2222ZM77.8889 78.1111H89V89.2222H77.8889V78.1111ZM89 78.1111H100.111V89.2222H89V78.1111ZM89 89.2222H100.111V100.333H89V89.2222ZM66.7778 89.2222H77.8889V100.333H66.7778V89.2222ZM55.6667 89.2222H66.7778V100.333H55.6667V89.2222ZM55.6667 78.1111H66.7778V89.2222H55.6667V78.1111ZM66.7778 78.1111H77.8889V89.2222H66.7778V78.1111Z" fill="#ABC26E"/>
</svg>
